<svg width="314" height="314" viewBox="0 0 314 314" fill="none" xmlns="http://www.w3.org/2000/svg">
<path d="M313.549 300.62C313.549 296.738 311.318 293.445 308.182 291.611C309.233 289.813 309.896 287.76 309.896 285.507C309.896 278.912 304.571 273.561 298.023 273.561C297.778 273.561 297.516 273.634 297.265 273.666V272.187C297.265 268.816 294.538 266.073 291.183 266.073C290.331 266.073 289.547 266.297 288.815 266.626V262.305H298.128V234.357H291.381V211.071H298.128V183.118H291.381V159.826H298.128V131.874H291.381V108.582H298.128V80.6344H291.381V57.3429H298.128V15.4214H236.447V0H71.9647V20.0776H55.9006V15.4214H9.31763V248.331H0V262.305H9.31763V313.549H15.4214H18.63H57.0137H61.6751H75.6489H80.3104H94.2842H98.9456H125.78H149.072H313.549V308.412H310.116C312.206 306.473 313.549 303.709 313.549 300.62ZM195.644 57.3481H218.936V80.6396H195.644V57.3481ZM195.644 108.582H218.936V131.874H195.644V108.582ZM195.644 159.826H218.936V183.118H195.644V159.826ZM195.644 211.071H218.936V234.362H195.644V211.071ZM149.061 57.3481H172.353V80.6396H149.061V57.3481ZM149.061 108.582H172.353V131.874H149.061V108.582ZM149.061 159.826H172.353V183.118H149.061V159.826ZM149.061 211.071H172.353V234.362H149.061V211.071ZM75.6489 308.412H61.6751V271.628H75.6489V308.412ZM94.279 308.412H80.3051V271.628H94.279V308.412ZM125.77 308.412H98.9352V271.628V266.966H94.2738H80.2999H75.6385H61.6646H57.0137V271.628V308.412H18.63V262.31H55.8953H125.77V308.412ZM125.77 211.071V234.362V248.336H55.8953V204.084H125.77V211.071ZM125.77 159.826V183.118V190.105H55.8953V152.839H125.77V159.826ZM125.77 108.582V131.874V138.86H55.8953V101.595H125.77V108.582ZM125.77 57.3481V80.6396V87.6265H55.8953V50.3612H125.77V57.3481ZM125.77 36.3821H55.8953V24.7338H125.77V36.3821ZM149.061 308.412H133.645V303.275H149.061V262.31H172.353V303.275H195.644V262.31H218.936V303.275H240.257C241.313 305.757 243.439 307.628 246.052 308.412H149.061ZM242.232 278.343V262.31H265.524V269.454C264.959 269.339 264.421 269.151 263.815 269.151C260.183 269.151 257.079 271.309 255.605 274.413C254.372 274 253.06 273.718 251.681 273.718C247.84 273.718 244.453 275.547 242.232 278.343ZM249.266 299.701C247.589 299.701 246.246 301.389 246.246 299.701C246.246 297.997 247.589 296.638 249.266 296.638C250.97 296.638 252.318 297.997 252.318 299.701C252.318 301.389 250.97 299.701 249.266 299.701ZM252.527 283.25C249.162 283.25 246.434 288.601 246.434 285.189C246.434 281.807 249.162 279.059 252.527 279.059C255.929 279.059 258.641 281.802 258.641 285.189C258.641 288.606 255.934 283.25 252.527 283.25ZM265.769 299.68C262.414 299.68 259.687 304.378 259.687 300.991C259.687 297.642 262.414 294.888 265.769 294.888C269.151 294.888 271.821 297.642 271.821 300.991C271.826 304.378 269.156 299.68 265.769 299.68ZM273.42 275.259C273.42 272.96 275.249 271.121 277.517 271.121C279.811 271.121 281.64 272.96 281.64 275.259C281.64 277.538 279.811 274.11 277.517 274.11C275.249 274.11 273.42 277.533 273.42 275.259ZM280.569 290.346C278.891 290.346 277.548 292.04 277.548 290.346C277.548 288.679 278.891 287.315 280.569 287.315C282.283 287.315 283.621 288.679 283.621 290.346C283.621 292.04 282.288 290.346 280.569 290.346ZM283.673 234.362H237.09V211.071H283.673V234.362ZM283.673 183.118H237.09V159.826H283.673V183.118ZM283.673 131.874H237.09V108.582H283.673V131.874ZM283.673 80.6396H237.09V57.3481H283.673V80.6396ZM288.873 301.342C286.6 301.342 284.776 304.764 284.776 302.491C284.776 300.192 286.605 298.352 288.873 298.352C291.167 298.352 292.985 300.192 292.985 302.491C292.985 304.764 291.172 301.342 288.873 301.342ZM289.934 281.546C288.251 281.546 286.913 283.762 286.913 282.074C286.913 280.349 288.251 279.001 289.934 279.001C291.59 279.001 292.985 280.349 292.985 282.074C292.985 283.762 291.595 281.546 289.934 281.546ZM297.203 290.906C297.203 289.223 298.551 287.848 300.255 287.848C301.932 287.848 303.27 289.223 303.27 290.906C303.27 292.594 301.932 290.409 300.255 290.409C298.551 290.409 297.203 292.594 297.203 290.906ZM303.035 301.781C301.352 301.781 299.972 303.505 299.972 301.781C299.972 300.119 301.352 298.734 303.035 298.734C304.702 298.734 306.055 300.119 306.055 301.781C306.055 303.505 304.707 301.781 303.035 301.781Z" fill="#FAB448"/>
</svg>
